<?xml version="1.0" encoding="UTF-8"?>
<svg width="40px" height="40px" viewBox="0 0 40 40" version="1.1" xmlns="http://www.w3.org/2000/svg" xmlns:xlink="http://www.w3.org/1999/xlink">
    <!-- Generator: Sketch 51.2 (57519) - http://www.bohemiancoding.com/sketch -->
    <title>menu-1</title>
    <desc>Created with Sketch.</desc>
    <defs></defs>
    <g id="menu-1" stroke="none" stroke-width="1" fill="none" fill-rule="evenodd">
        <path d="M20,40 C8.954305,40 0,31.045695 0,20 C0,8.954305 8.954305,0 20,0 C31.045695,0 40,8.954305 40,20 C40,31.045695 31.045695,40 20,40 Z M9.82352941,12.9411765 C9.27124466,12.9411765 8.82352941,13.3888917 8.82352941,13.9411765 L8.82352941,14.2941176 C8.82352941,14.8464024 9.27124466,15.2941176 9.82352941,15.2941176 L30.1764706,15.2941176 C30.7287553,15.2941176 31.1764706,14.8464024 31.1764706,14.2941176 L31.1764706,13.9411765 C31.1764706,13.3888917 30.7287553,12.9411765 30.1764706,12.9411765 L9.82352941,12.9411765 Z M9.82352941,18.8235294 C9.27124466,18.8235294 8.82352941,19.2712447 8.82352941,19.8235294 L8.82352941,20.1764706 C8.82352941,20.7287553 9.27124466,21.1764706 9.82352941,21.1764706 L30.1764706,21.1764706 C30.7287553,21.1764706 31.1764706,20.7287553 31.1764706,20.1764706 L31.1764706,19.8235294 C31.1764706,19.2712447 30.7287553,18.8235294 30.1764706,18.8235294 L9.82352941,18.8235294 Z M9.82352941,24.7058824 C9.27124466,24.7058824 8.82352941,25.1535976 8.82352941,25.7058824 L8.82352941,26.0588235 C8.82352941,26.6111083 9.27124466,27.0588235 9.82352941,27.0588235 L30.1764706,27.0588235 C30.7287553,27.0588235 31.1764706,26.6111083 31.1764706,26.0588235 L31.1764706,25.7058824 C31.1764706,25.1535976 30.7287553,24.7058824 30.1764706,24.7058824 L9.82352941,24.7058824 Z" id="Combined-Shape" fill="#002A36"></path>
    </g>
</svg>