<?xml version="1.0" encoding="UTF-8"?>
<svg width="34px" height="34px" viewBox="0 0 34 34" version="1.1" xmlns="http://www.w3.org/2000/svg" xmlns:xlink="http://www.w3.org/1999/xlink">
    <!-- Generator: Sketch 51.2 (57519) - http://www.bohemiancoding.com/sketch -->
    <title>social-so-1</title>
    <desc>Created with Sketch.</desc>
    <defs></defs>
    <g id="Page-1" stroke="none" stroke-width="1" fill="none" fill-rule="evenodd">
        <g id="Blog-Listing" transform="translate(-851.000000, -1275.000000)" fill="#002A36">
            <path d="M868,1309 C858.611159,1309 851,1301.38884 851,1292 C851,1282.61116 858.611159,1275 868,1275 C877.388841,1275 885,1282.61116 885,1292 C885,1301.38884 877.388841,1309 868,1309 Z M862.9,1299.9 L870.4,1299.9 C870.7,1299.9 871,1299.6 871,1299.3 L871,1298.5 C871,1298.2 870.7,1297.9 870.4,1297.9 L862.9,1297.9 C862.6,1297.9 862.3,1298.2 862.3,1298.5 L862.3,1299.3 C862.3,1299.6 862.6,1299.9 862.9,1299.9 Z M859.7,1301.6 C859.7,1302.8 859.7,1302.8 859.8,1302.8 L860.2,1302.8 C860.2,1302.8 863.6,1302.8 867,1302.8 C868.7,1302.8 870.4,1302.8 871.7,1302.8 C872.3,1302.8 872.9,1302.8 873.2,1302.8 C873.9,1302.8 873.9,1302.8 873.9,1302.7 L873.9,1302.3 L873.9,1294.3 C873.9,1294 873.6,1293.7 873.3,1293.7 L872.8,1293.7 C872.5,1293.7 872.2,1294 872.2,1294.3 L872.2,1300.8 C872.2,1301 872,1301.2 871.8,1301.2 L861.7,1301.2 C861.5,1301.2 861.3,1301 861.3,1300.8 L861.3,1294.3 C861.3,1294 861,1293.7 860.7,1293.7 L860.3,1293.7 C860,1293.7 859.7,1294 859.7,1294.3 C859.7,1295.2 859.7,1297.3 859.7,1299.2 C859.7,1300.1 859.7,1300.9 859.7,1301.6 Z M863,1296.8 L870.5,1297.5 C870.5,1297.5 870.5,1297.5 870.6,1297.5 C870.9,1297.5 871.2,1297.3 871.2,1296.9 L871.3,1296.1 C871.3,1295.8 871.1,1295.5 870.7,1295.4 L863.2,1294.7 C862.9,1294.7 862.6,1294.9 862.5,1295.2 L862.4,1296 C862.4,1296.2 862.4,1296.3 862.5,1296.4 C862.7,1296.7 862.8,1296.8 863,1296.8 Z M874.7,1289.3 C874.8,1289.6 875,1289.8 875.3,1289.8 C875.3,1289.8 875.4,1289.8 875.4,1289.8 L876.2,1289.7 C876.5,1289.6 876.8,1289.3 876.7,1289 L875.5,1281.5 C875.4,1281.2 875.1,1280.9 874.8,1281 L874,1281.1 C873.7,1281.2 873.4,1281.5 873.5,1281.8 L874.7,1289.3 Z M864.9,1288.7 L871.4,1292.5 C871.5,1292.6 871.6,1292.6 871.7,1292.6 C871.9,1292.6 872.1,1292.5 872.2,1292.3 L872.6,1291.6 C872.7,1291.5 872.7,1291.3 872.7,1291.1 C872.7,1290.9 872.6,1290.8 872.4,1290.7 L866,1287 C865.7,1286.8 865.3,1286.9 865.2,1287.2 L864.7,1287.9 C864.6,1288 864.6,1288.2 864.6,1288.4 C864.7,1288.5 864.8,1288.6 864.9,1288.7 Z M872.7,1290.6 C872.8,1290.8 873,1290.9 873.2,1290.9 C873.3,1290.9 873.4,1290.9 873.5,1290.8 L874.2,1290.3 C874.5,1290.1 874.5,1289.7 874.4,1289.5 L870.1,1283.3 C869.9,1283 869.5,1283 869.3,1283.1 L868.6,1283.5 C868.3,1283.7 868.3,1284.1 868.4,1284.3 L872.7,1290.6 Z M863.5,1293 L870.8,1295 C870.9,1295 870.9,1295 871,1295 C871.3,1295 871.5,1294.8 871.6,1294.5 L871.8,1293.7 C871.9,1293.4 871.7,1293 871.4,1293 L864.1,1291 C863.8,1290.9 863.4,1291.1 863.4,1291.4 L863,1292.3 C863,1292.6 863.1,1292.9 863.5,1293 Z" id="social-so-1"></path>
        </g>
    </g>
</svg>