<?xml version="1.0" encoding="UTF-8"?>
<svg width="34px" height="34px" viewBox="0 0 34 34" version="1.1" xmlns="http://www.w3.org/2000/svg" xmlns:xlink="http://www.w3.org/1999/xlink">
    <!-- Generator: Sketch 51.2 (57519) - http://www.bohemiancoding.com/sketch -->
    <title>social-in-1</title>
    <desc>Created with Sketch.</desc>
    <defs></defs>
    <g id="Page-1" stroke="none" stroke-width="1" fill="none" fill-rule="evenodd">
        <g id="Blog-Listing" transform="translate(-804.000000, -1275.000000)" fill="#002A36">
            <path d="M821,1309 C811.611159,1309 804,1301.38884 804,1292 C804,1282.61116 811.611159,1275 821,1275 C830.388841,1275 838,1282.61116 838,1292 C838,1301.38884 830.388841,1309 821,1309 Z M816.757576,1288.31818 L813.030303,1288.31818 C812.848485,1288.31818 812.757576,1288.40909 812.757576,1288.59091 L812.757576,1300.59091 C812.757576,1300.77273 812.848485,1300.86364 813.030303,1300.86364 L816.757576,1300.86364 C816.939394,1300.86364 817.030303,1300.77273 817.030303,1300.59091 L817.030303,1288.59091 C817.030303,1288.40909 816.939394,1288.31818 816.757576,1288.31818 Z M814.848485,1282.31818 C813.484848,1282.31818 812.393939,1283.40909 812.393939,1284.77273 C812.393939,1286.13636 813.484848,1287.22727 814.848485,1287.22727 C816.212121,1287.22727 817.30303,1286.13636 817.30303,1284.77273 C817.30303,1283.40909 816.212121,1282.31818 814.848485,1282.31818 Z M826.30303,1288.04545 C824.757576,1288.04545 823.666667,1288.68182 823.030303,1289.40909 L823.030303,1288.59091 C823.030303,1288.40909 822.939394,1288.31818 822.757576,1288.31818 L819.121212,1288.31818 C818.939394,1288.31818 818.757576,1288.40909 818.757576,1288.59091 L818.757576,1300.59091 C818.757576,1300.77273 818.848485,1300.86364 819.030303,1300.86364 L822.757576,1300.86364 C822.939394,1300.86364 823.030303,1300.77273 823.030303,1300.59091 L823.030303,1294.68182 C823.030303,1292.68182 823.575758,1291.86364 824.939394,1291.86364 C826.484848,1291.86364 826.575758,1293.13636 826.575758,1294.77273 L826.575758,1300.59091 C826.575758,1300.77273 826.666667,1300.86364 826.848485,1300.86364 L830.757576,1300.86364 C830.939394,1300.86364 831.030303,1300.77273 831.030303,1300.59091 L831.030303,1293.95455 C831.030303,1291.04545 830.484848,1288.04545 826.30303,1288.04545 Z" id="social-in-1"></path>
        </g>
    </g>
</svg>