<?xml version="1.0" encoding="UTF-8"?>
<svg width="34px" height="34px" viewBox="0 0 34 34" version="1.1" xmlns="http://www.w3.org/2000/svg" xmlns:xlink="http://www.w3.org/1999/xlink">
    <!-- Generator: Sketch 51.2 (57519) - http://www.bohemiancoding.com/sketch -->
    <title>social-in-2</title>
    <desc>Created with Sketch.</desc>
    <defs></defs>
    <g id="Page-1" stroke="none" stroke-width="1" fill="none" fill-rule="evenodd">
        <g id="Blog-Listing" transform="translate(-811.000000, -1145.000000)" fill="#FFFFFF">
            <path d="M828,1179 C818.611159,1179 811,1171.38884 811,1162 C811,1152.61116 818.611159,1145 828,1145 C837.388841,1145 845,1152.61116 845,1162 C845,1171.38884 837.388841,1179 828,1179 Z M823.757576,1158.31818 L820.030303,1158.31818 C819.848485,1158.31818 819.757576,1158.40909 819.757576,1158.59091 L819.757576,1170.59091 C819.757576,1170.77273 819.848485,1170.86364 820.030303,1170.86364 L823.757576,1170.86364 C823.939394,1170.86364 824.030303,1170.77273 824.030303,1170.59091 L824.030303,1158.59091 C824.030303,1158.40909 823.939394,1158.31818 823.757576,1158.31818 Z M821.848485,1152.31818 C820.484848,1152.31818 819.393939,1153.40909 819.393939,1154.77273 C819.393939,1156.13636 820.484848,1157.22727 821.848485,1157.22727 C823.212121,1157.22727 824.30303,1156.13636 824.30303,1154.77273 C824.30303,1153.40909 823.212121,1152.31818 821.848485,1152.31818 Z M833.30303,1158.04545 C831.757576,1158.04545 830.666667,1158.68182 830.030303,1159.40909 L830.030303,1158.59091 C830.030303,1158.40909 829.939394,1158.31818 829.757576,1158.31818 L826.121212,1158.31818 C825.939394,1158.31818 825.757576,1158.40909 825.757576,1158.59091 L825.757576,1170.59091 C825.757576,1170.77273 825.848485,1170.86364 826.030303,1170.86364 L829.757576,1170.86364 C829.939394,1170.86364 830.030303,1170.77273 830.030303,1170.59091 L830.030303,1164.68182 C830.030303,1162.68182 830.575758,1161.86364 831.939394,1161.86364 C833.484848,1161.86364 833.575758,1163.13636 833.575758,1164.77273 L833.575758,1170.59091 C833.575758,1170.77273 833.666667,1170.86364 833.848485,1170.86364 L837.757576,1170.86364 C837.939394,1170.86364 838.030303,1170.77273 838.030303,1170.59091 L838.030303,1163.95455 C838.030303,1161.04545 837.484848,1158.04545 833.30303,1158.04545 Z" id="social-in-2"></path>
        </g>
    </g>
</svg>