<?xml version="1.0" encoding="UTF-8"?>
<svg width="34px" height="34px" viewBox="0 0 34 34" version="1.1" xmlns="http://www.w3.org/2000/svg" xmlns:xlink="http://www.w3.org/1999/xlink">
    <!-- Generator: Sketch 51.2 (57519) - http://www.bohemiancoding.com/sketch -->
    <title>social-tw-2</title>
    <desc>Created with Sketch.</desc>
    <defs></defs>
    <g id="Page-1" stroke="none" stroke-width="1" fill="none" fill-rule="evenodd">
        <g id="Blog-Listing" transform="translate(-764.000000, -1145.000000)" fill="#FFFFFF">
            <path d="M781,1179 C771.611159,1179 764,1171.38884 764,1162 C764,1152.61116 771.611159,1145 781,1145 C790.388841,1145 798,1152.61116 798,1162 C798,1171.38884 790.388841,1179 781,1179 Z M792.521739,1156.2 C791.756522,1156.58261 790.895652,1156.77391 789.93913,1156.86957 C790.895652,1156.29565 791.565217,1155.43478 791.852174,1154.38261 C790.991304,1154.95652 790.034783,1155.24348 789.078261,1155.43478 C788.313043,1154.57391 787.165217,1154 785.826087,1154 C783.33913,1154 781.426087,1156.0087 781.426087,1158.4 C781.426087,1158.78261 781.426087,1159.06957 781.521739,1159.45217 C777.886957,1159.26087 774.634783,1157.53913 772.434783,1154.86087 C772.052174,1155.53043 771.86087,1156.29565 771.86087,1157.15652 C771.86087,1158.68696 772.626087,1160.02609 773.869565,1160.7913 C773.104348,1160.7913 772.434783,1160.6 771.86087,1160.21739 L771.86087,1160.31304 C771.86087,1162.41739 773.391304,1164.23478 775.4,1164.61739 C775.017391,1164.71304 774.634783,1164.8087 774.252174,1164.8087 C773.965217,1164.8087 773.678261,1164.8087 773.391304,1164.71304 C773.965217,1166.43478 775.591304,1167.77391 777.504348,1167.77391 C775.973913,1168.92174 774.06087,1169.68696 772.052174,1169.68696 C771.669565,1169.68696 771.382609,1169.68696 771,1169.5913 C772.913043,1170.83478 775.304348,1171.6 777.791304,1171.6 C785.921739,1171.6 790.417391,1164.90435 790.417391,1158.97391 L790.417391,1158.4 C791.086957,1157.82609 791.852174,1157.06087 792.521739,1156.2 Z" id="social-tw-2"></path>
        </g>
    </g>
</svg>