<?xml version="1.0" encoding="UTF-8"?>
<svg width="34px" height="34px" viewBox="0 0 34 34" version="1.1" xmlns="http://www.w3.org/2000/svg" xmlns:xlink="http://www.w3.org/1999/xlink">
    <!-- Generator: Sketch 51.2 (57519) - http://www.bohemiancoding.com/sketch -->
    <title>social-so-2</title>
    <desc>Created with Sketch.</desc>
    <defs></defs>
    <g id="Page-1" stroke="none" stroke-width="1" fill="none" fill-rule="evenodd">
        <g id="Blog-Listing" transform="translate(-857.000000, -1145.000000)" fill="#FFFFFF">
            <path d="M874,1179 C864.611159,1179 857,1171.38884 857,1162 C857,1152.61116 864.611159,1145 874,1145 C883.388841,1145 891,1152.61116 891,1162 C891,1171.38884 883.388841,1179 874,1179 Z M868.9,1169.9 L876.4,1169.9 C876.7,1169.9 877,1169.6 877,1169.3 L877,1168.5 C877,1168.2 876.7,1167.9 876.4,1167.9 L868.9,1167.9 C868.6,1167.9 868.3,1168.2 868.3,1168.5 L868.3,1169.3 C868.3,1169.6 868.6,1169.9 868.9,1169.9 Z M865.7,1171.6 C865.7,1172.8 865.7,1172.8 865.8,1172.8 L866.2,1172.8 C866.2,1172.8 869.6,1172.8 873,1172.8 C874.7,1172.8 876.4,1172.8 877.7,1172.8 C878.3,1172.8 878.9,1172.8 879.2,1172.8 C879.9,1172.8 879.9,1172.8 879.9,1172.7 L879.9,1172.3 L879.9,1164.3 C879.9,1164 879.6,1163.7 879.3,1163.7 L878.8,1163.7 C878.5,1163.7 878.2,1164 878.2,1164.3 L878.2,1170.8 C878.2,1171 878,1171.2 877.8,1171.2 L867.7,1171.2 C867.5,1171.2 867.3,1171 867.3,1170.8 L867.3,1164.3 C867.3,1164 867,1163.7 866.7,1163.7 L866.3,1163.7 C866,1163.7 865.7,1164 865.7,1164.3 C865.7,1165.2 865.7,1167.3 865.7,1169.2 C865.7,1170.1 865.7,1170.9 865.7,1171.6 Z M869,1166.8 L876.5,1167.5 C876.5,1167.5 876.5,1167.5 876.6,1167.5 C876.9,1167.5 877.2,1167.3 877.2,1166.9 L877.3,1166.1 C877.3,1165.8 877.1,1165.5 876.7,1165.4 L869.2,1164.7 C868.9,1164.7 868.6,1164.9 868.5,1165.2 L868.4,1166 C868.4,1166.2 868.4,1166.3 868.5,1166.4 C868.7,1166.7 868.8,1166.8 869,1166.8 Z M880.7,1159.3 C880.8,1159.6 881,1159.8 881.3,1159.8 C881.3,1159.8 881.4,1159.8 881.4,1159.8 L882.2,1159.7 C882.5,1159.6 882.8,1159.3 882.7,1159 L881.5,1151.5 C881.4,1151.2 881.1,1150.9 880.8,1151 L880,1151.1 C879.7,1151.2 879.4,1151.5 879.5,1151.8 L880.7,1159.3 Z M870.9,1158.7 L877.4,1162.5 C877.5,1162.6 877.6,1162.6 877.7,1162.6 C877.9,1162.6 878.1,1162.5 878.2,1162.3 L878.6,1161.6 C878.7,1161.5 878.7,1161.3 878.7,1161.1 C878.7,1160.9 878.6,1160.8 878.4,1160.7 L872,1157 C871.7,1156.8 871.3,1156.9 871.2,1157.2 L870.7,1157.9 C870.6,1158 870.6,1158.2 870.6,1158.4 C870.7,1158.5 870.8,1158.6 870.9,1158.7 Z M878.7,1160.6 C878.8,1160.8 879,1160.9 879.2,1160.9 C879.3,1160.9 879.4,1160.9 879.5,1160.8 L880.2,1160.3 C880.5,1160.1 880.5,1159.7 880.4,1159.5 L876.1,1153.3 C875.9,1153 875.5,1153 875.3,1153.1 L874.6,1153.5 C874.3,1153.7 874.3,1154.1 874.4,1154.3 L878.7,1160.6 Z M869.5,1163 L876.8,1165 C876.9,1165 876.9,1165 877,1165 C877.3,1165 877.5,1164.8 877.6,1164.5 L877.8,1163.7 C877.9,1163.4 877.7,1163 877.4,1163 L870.1,1161 C869.8,1160.9 869.4,1161.1 869.4,1161.4 L869,1162.3 C869,1162.6 869.1,1162.9 869.5,1163 Z" id="social-so-2"></path>
        </g>
    </g>
</svg>