<?xml version="1.0" encoding="UTF-8"?>
<svg width="40px" height="34px" viewBox="0 0 40 34" version="1.1" xmlns="http://www.w3.org/2000/svg" xmlns:xlink="http://www.w3.org/1999/xlink">
    <!-- Generator: Sketch 51.2 (57519) - http://www.bohemiancoding.com/sketch -->
    <title>icon-dark-mode</title>
    <desc>Created with Sketch.</desc>
    <defs></defs>
    <g id="icon-dark-mode" stroke="none" stroke-width="1" fill="none" fill-rule="evenodd">
        <path d="M29.8399999,21.5505712 C29.6480963,21.3140636 29.3258505,21.2268143 29.0420525,21.3285025 C28.2469594,21.6135317 27.3843166,21.7598239 26.4762304,21.7598239 C22.1306129,21.7598239 18.5963184,18.2237385 18.5963184,13.8799119 C18.5963184,11.2650646 19.8869807,8.83103973 22.0490721,7.36677445 C22.2941423,7.2006147 22.4115567,6.9011466 22.3455181,6.61320726 C22.2797034,6.32526792 22.0434196,6.10756451 21.749604,6.06447155 C21.4144303,6.01572613 21.0806557,6 20.7452581,6 C14.8195841,6 10,10.8195281 10,16.7452581 C10,22.6709882 14.8195841,27.4905163 20.7452581,27.4905163 C24.5060985,27.4905163 27.9273439,25.5792035 29.8944537,22.3786836 C30.0536178,22.1193983 30.0306163,21.7884219 29.8399999,21.5505712 Z" id="Fill-1" fill="#FFFFFF"></path>
    </g>
</svg>