<?xml version="1.0" encoding="UTF-8"?>
<svg width="38px" height="38px" viewBox="0 0 38 38" version="1.1" xmlns="http://www.w3.org/2000/svg" xmlns:xlink="http://www.w3.org/1999/xlink">
    <!-- Generator: Sketch 59.1 (86144) - https://sketch.com -->
    <title>menu-1</title>
    <desc>Created with Sketch.</desc>
    <g id="Page-1" stroke="none" stroke-width="1" fill="none" fill-rule="evenodd">
        <g id="menu-1" fill="#002A36" fill-rule="nonzero">
            <path d="M19,38 C8.50658975,38 0,29.4934102 0,19 C0,8.50658975 8.50658975,0 19,0 C29.4934102,0 38,8.50658975 38,19 C38,29.4934102 29.4934102,38 19,38 Z M9.33235294,12.2941177 C8.80768243,12.2941177 8.38235294,12.7194471 8.38235294,13.2441177 L8.38235294,13.5794117 C8.38235294,14.1040823 8.80768243,14.5294117 9.33235294,14.5294117 L28.6676471,14.5294117 C29.1923175,14.5294117 29.6176471,14.1040823 29.6176471,13.5794117 L29.6176471,13.2441177 C29.6176471,12.7194471 29.1923175,12.2941177 28.6676471,12.2941177 L9.33235294,12.2941177 Z M9.33235294,17.8823529 C8.80768243,17.8823529 8.38235294,18.3076825 8.38235294,18.8323529 L8.38235294,19.1676471 C8.38235294,19.6923175 8.80768243,20.1176471 9.33235294,20.1176471 L28.6676471,20.1176471 C29.1923175,20.1176471 29.6176471,19.6923175 29.6176471,19.1676471 L29.6176471,18.8323529 C29.6176471,18.3076825 29.1923175,17.8823529 28.6676471,17.8823529 L9.33235294,17.8823529 Z M9.33235294,23.4705883 C8.80768243,23.4705883 8.38235294,23.8959177 8.38235294,24.4205883 L8.38235294,24.7558823 C8.38235294,25.2805529 8.80768243,25.7058823 9.33235294,25.7058823 L28.6676471,25.7058823 C29.1923175,25.7058823 29.6176471,25.2805529 29.6176471,24.7558823 L29.6176471,24.4205883 C29.6176471,23.8959177 29.1923175,23.4705883 28.6676471,23.4705883 L9.33235294,23.4705883 Z" id="Combined-Shape"></path>
        </g>
    </g>
</svg>