<?xml version="1.0" encoding="UTF-8"?>
<svg width="40px" height="34px" viewBox="0 0 40 34" version="1.1" xmlns="http://www.w3.org/2000/svg" xmlns:xlink="http://www.w3.org/1999/xlink">
    <!-- Generator: Sketch 51.2 (57519) - http://www.bohemiancoding.com/sketch -->
    <title>icon-light-mode</title>
    <desc>Created with Sketch.</desc>
    <defs></defs>
    <g id="icon-light-mode" stroke="none" stroke-width="1" fill="none" fill-rule="evenodd">
        <path d="M26.9983393,10.9892053 C30.3151208,10.9892053 33.0107947,13.6848792 33.0107947,17.0009964 C33.0107947,20.3151208 30.3151208,23.0107947 26.9983393,23.0107947 C23.6848792,23.0107947 20.9892053,20.3151208 20.9892053,17.0009964 C20.9892053,13.6848792 23.6848792,10.9892053 26.9983393,10.9892053 Z M26.9983393,9.22153948 C26.352653,9.22153948 25.825874,8.69741759 25.825874,8.04907415 L25.825874,6.17312962 C25.825874,5.5241219 26.352653,5 26.9983393,5 C27.647347,5 28.1714689,5.5241219 28.1714689,6.17312962 L28.1714689,8.04907415 C28.1714689,8.69741759 27.647347,9.22153948 26.9983393,9.22153948 Z M26.9983393,24.7777962 C27.647347,24.7777962 28.1714689,25.3025824 28.1714689,25.9509258 L28.1714689,27.8268704 C28.1714689,28.473221 27.647347,29 26.9983393,29 C26.352653,29 25.825874,28.473221 25.825874,27.8268704 L25.825874,25.9509258 C25.825874,25.3025824 26.352653,24.7777962 26.9983393,24.7777962 Z M32.4999585,11.5000415 C32.0402724,11.0410197 32.0402724,10.2990119 32.4999585,9.84198289 L33.825874,8.51341028 C34.2822386,8.05704559 35.0269036,8.05704559 35.4839326,8.51341028 C35.9429544,8.97243212 35.9429544,9.71510421 35.4839326,10.174126 L34.1580171,11.5000415 C33.7009881,11.9570705 32.9563232,11.9570705 32.4999585,11.5000415 Z M21.5000415,22.4999585 C21.9570705,22.9563232 21.9570705,23.7009881 21.5000415,24.1580171 L20.174126,25.4839326 C19.7151042,25.9429544 18.9724321,25.9429544 18.5134103,25.4839326 C18.0570456,25.0269036 18.0570456,24.2848958 18.5134103,23.825874 L19.8419829,22.4999585 C20.2990119,22.0402724 21.0410197,22.0402724 21.5000415,22.4999585 Z M34.7777962,16.9990036 C34.7777962,16.352653 35.3019181,15.825874 35.9509258,15.825874 L37.8268704,15.825874 C38.473221,15.825874 39,16.352653 39,16.9990036 C39,17.647347 38.473221,18.1714689 37.8268704,18.1714689 L35.9509258,18.1714689 C35.3019181,18.1714689 34.7777962,17.647347 34.7777962,16.9990036 Z M19.2215395,16.9990036 C19.2215395,17.647347 18.6974176,18.1714689 18.0490742,18.1714689 L16.1731296,18.1714689 C15.5241219,18.1714689 15,17.647347 15,16.9990036 C15,16.352653 15.5241219,15.825874 16.1731296,15.825874 L18.0490742,15.825874 C18.6974176,15.825874 19.2215395,16.352653 19.2215395,16.9990036 Z M32.4999585,22.4999585 C32.9563232,22.0429295 33.7009881,22.0429295 34.1580171,22.4999585 L35.4839326,23.825874 C35.9429544,24.2848958 35.9429544,25.0269036 35.4839326,25.4839326 C35.0269036,25.9429544 34.2848958,25.9429544 33.825874,25.4839326 L32.4999585,24.1580171 C32.0402724,23.7009881 32.0402724,22.9563232 32.4999585,22.4999585 Z M21.5000415,11.5000415 C21.0410197,11.9597276 20.2990119,11.9597276 19.8419829,11.5000415 L18.5134103,10.174126 C18.0570456,9.71510421 18.0570456,8.97243212 18.5134103,8.51606743 C18.9724321,8.05704559 19.7151042,8.05704559 20.174126,8.51606743 L21.5000415,9.84198289 C21.9570705,10.2990119 21.9570705,11.0410197 21.5000415,11.5000415 Z" id="Combined-Shape" fill="#FFFFFF"></path>
    </g>
</svg>