<?xml version="1.0" encoding="UTF-8"?>
<svg width="34px" height="34px" viewBox="0 0 34 34" version="1.1" xmlns="http://www.w3.org/2000/svg" xmlns:xlink="http://www.w3.org/1999/xlink">
    <!-- Generator: Sketch 51.2 (57519) - http://www.bohemiancoding.com/sketch -->
    <title>social-gh-1</title>
    <desc>Created with Sketch.</desc>
    <defs></defs>
    <g id="Page-1" stroke="none" stroke-width="1" fill="none" fill-rule="evenodd">
        <g id="Blog-Listing" transform="translate(-711.000000, -1275.000000)" fill="#002A36">
            <path d="M728,1309 C718.611159,1309 711,1301.38884 711,1292 C711,1282.61116 718.611159,1275 728,1275 C737.388841,1275 745,1282.61116 745,1292 C745,1301.38884 737.388841,1309 728,1309 Z M736.6,1291 C736.7,1290.5 736.7,1289.9 736.7,1289.3 C736.7,1286.6 735.4,1285.7 735.2,1285.2 C735.6,1283.2 735.1,1282.3 734.9,1281.9 C734.2,1281.6 732.4,1282.6 731.4,1283.2 C729.8,1282.7 726.4,1282.8 725.1,1283.3 C722.8,1281.7 721.6,1281.9 721.6,1281.9 C721.6,1281.9 720.8,1283.4 721.3,1285.5 C720.6,1286.5 720,1287.2 720,1289 C720,1289.4 720,1289.9 720.1,1290.3 C720.8,1293.8 723.5,1295.3 726.2,1295.6 C725.8,1295.9 725.3,1296.5 725.2,1297.2 C724.7,1297.5 723.7,1297.6 722.8,1297.4 C721.7,1297 721.2,1294.8 719.6,1295.1 C719.2,1295.2 719.3,1295.4 719.6,1295.6 C720.1,1295.9 720.6,1296.3 721,1297.2 C721.3,1297.9 721.9,1299.1 723.8,1299.1 C724.6,1299.1 725.1,1299 725.1,1299 C725.1,1299 725.1,1300.7 725.1,1301.4 C725.1,1302.2 724.1,1302.4 724.1,1302.8 C724.1,1302.9 724.4,1303 724.7,1303 C725.3,1303 726.4,1302.5 726.4,1301.7 C726.4,1301.1 726.4,1298.9 726.4,1298.5 C726.4,1297.7 726.8,1297.4 726.8,1297.4 C726.8,1297.4 726.9,1301.8 726.7,1302.4 C726.5,1303.1 726.2,1303 726.2,1303.3 C726.2,1303.8 727.6,1303.4 728,1302.4 C728.4,1301.6 728.2,1297.3 728.2,1297.3 L728.6,1297.3 C728.6,1297.3 728.6,1299.3 728.6,1300.2 C728.6,1301.1 728.5,1302.3 729,1302.9 C729.4,1303.3 730.5,1303.9 730.5,1303.3 C730.5,1303 729.7,1302.7 729.7,1301.7 L729.7,1297.4 C730.2,1297.4 730.3,1298.8 730.3,1298.8 L730.5,1301.4 C730.5,1301.4 730.4,1302.4 731.5,1302.7 C731.9,1302.8 732.8,1302.9 732.8,1302.6 C732.8,1302.4 731.8,1302 731.8,1301.3 C731.8,1300.9 731.8,1300.6 731.8,1298.6 C731.8,1296.7 731.5,1295.9 730.6,1295.4 C733.3,1295.2 736.1,1294.1 736.6,1291 Z" id="social-gh-1"></path>
        </g>
    </g>
</svg>