<?xml version="1.0" encoding="UTF-8"?>
<svg width="34px" height="34px" viewBox="0 0 34 34" version="1.1" xmlns="http://www.w3.org/2000/svg" xmlns:xlink="http://www.w3.org/1999/xlink">
    <!-- Generator: Sketch 51.2 (57519) - http://www.bohemiancoding.com/sketch -->
    <title>social-gh-2</title>
    <desc>Created with Sketch.</desc>
    <defs></defs>
    <g id="Page-1" stroke="none" stroke-width="1" fill="none" fill-rule="evenodd">
        <g id="Blog-Listing" transform="translate(-717.000000, -1145.000000)" fill="#FFFFFF">
            <path d="M734,1179 C724.611159,1179 717,1171.38884 717,1162 C717,1152.61116 724.611159,1145 734,1145 C743.388841,1145 751,1152.61116 751,1162 C751,1171.38884 743.388841,1179 734,1179 Z M742.6,1161 C742.7,1160.5 742.7,1159.9 742.7,1159.3 C742.7,1156.6 741.4,1155.7 741.2,1155.2 C741.6,1153.2 741.1,1152.3 740.9,1151.9 C740.2,1151.6 738.4,1152.6 737.4,1153.2 C735.8,1152.7 732.4,1152.8 731.1,1153.3 C728.8,1151.7 727.6,1151.9 727.6,1151.9 C727.6,1151.9 726.8,1153.4 727.3,1155.5 C726.6,1156.5 726,1157.2 726,1159 C726,1159.4 726,1159.9 726.1,1160.3 C726.8,1163.8 729.5,1165.3 732.2,1165.6 C731.8,1165.9 731.3,1166.5 731.2,1167.2 C730.7,1167.5 729.7,1167.6 728.8,1167.4 C727.7,1167 727.2,1164.8 725.6,1165.1 C725.2,1165.2 725.3,1165.4 725.6,1165.6 C726.1,1165.9 726.6,1166.3 727,1167.2 C727.3,1167.9 727.9,1169.1 729.8,1169.1 C730.6,1169.1 731.1,1169 731.1,1169 C731.1,1169 731.1,1170.7 731.1,1171.4 C731.1,1172.2 730.1,1172.4 730.1,1172.8 C730.1,1172.9 730.4,1173 730.7,1173 C731.3,1173 732.4,1172.5 732.4,1171.7 C732.4,1171.1 732.4,1168.9 732.4,1168.5 C732.4,1167.7 732.8,1167.4 732.8,1167.4 C732.8,1167.4 732.9,1171.8 732.7,1172.4 C732.5,1173.1 732.2,1173 732.2,1173.3 C732.2,1173.8 733.6,1173.4 734,1172.4 C734.4,1171.6 734.2,1167.3 734.2,1167.3 L734.6,1167.3 C734.6,1167.3 734.6,1169.3 734.6,1170.2 C734.6,1171.1 734.5,1172.3 735,1172.9 C735.4,1173.3 736.5,1173.9 736.5,1173.3 C736.5,1173 735.7,1172.7 735.7,1171.7 L735.7,1167.4 C736.2,1167.4 736.3,1168.8 736.3,1168.8 L736.5,1171.4 C736.5,1171.4 736.4,1172.4 737.5,1172.7 C737.9,1172.8 738.8,1172.9 738.8,1172.6 C738.8,1172.4 737.8,1172 737.8,1171.3 C737.8,1170.9 737.8,1170.6 737.8,1168.6 C737.8,1166.7 737.5,1165.9 736.6,1165.4 C739.3,1165.2 742.1,1164.1 742.6,1161 Z" id="social-gh-2"></path>
        </g>
    </g>
</svg>