<?xml version="1.0" encoding="UTF-8"?>
<svg width="34px" height="34px" viewBox="0 0 34 34" version="1.1" xmlns="http://www.w3.org/2000/svg" xmlns:xlink="http://www.w3.org/1999/xlink">
    <!-- Generator: Sketch 51.2 (57519) - http://www.bohemiancoding.com/sketch -->
    <title>social-tw-1</title>
    <desc>Created with Sketch.</desc>
    <defs></defs>
    <g id="Page-1" stroke="none" stroke-width="1" fill="none" fill-rule="evenodd">
        <g id="Blog-Listing" transform="translate(-758.000000, -1275.000000)" fill="#002A36">
            <path d="M775,1309 C765.611159,1309 758,1301.38884 758,1292 C758,1282.61116 765.611159,1275 775,1275 C784.388841,1275 792,1282.61116 792,1292 C792,1301.38884 784.388841,1309 775,1309 Z M786.521739,1286.2 C785.756522,1286.58261 784.895652,1286.77391 783.93913,1286.86957 C784.895652,1286.29565 785.565217,1285.43478 785.852174,1284.38261 C784.991304,1284.95652 784.034783,1285.24348 783.078261,1285.43478 C782.313043,1284.57391 781.165217,1284 779.826087,1284 C777.33913,1284 775.426087,1286.0087 775.426087,1288.4 C775.426087,1288.78261 775.426087,1289.06957 775.521739,1289.45217 C771.886957,1289.26087 768.634783,1287.53913 766.434783,1284.86087 C766.052174,1285.53043 765.86087,1286.29565 765.86087,1287.15652 C765.86087,1288.68696 766.626087,1290.02609 767.869565,1290.7913 C767.104348,1290.7913 766.434783,1290.6 765.86087,1290.21739 L765.86087,1290.31304 C765.86087,1292.41739 767.391304,1294.23478 769.4,1294.61739 C769.017391,1294.71304 768.634783,1294.8087 768.252174,1294.8087 C767.965217,1294.8087 767.678261,1294.8087 767.391304,1294.71304 C767.965217,1296.43478 769.591304,1297.77391 771.504348,1297.77391 C769.973913,1298.92174 768.06087,1299.68696 766.052174,1299.68696 C765.669565,1299.68696 765.382609,1299.68696 765,1299.5913 C766.913043,1300.83478 769.304348,1301.6 771.791304,1301.6 C779.921739,1301.6 784.417391,1294.90435 784.417391,1288.97391 L784.417391,1288.4 C785.086957,1287.82609 785.852174,1287.06087 786.521739,1286.2 Z" id="social-tw-1"></path>
        </g>
    </g>
</svg>