<?xml version="1.0" encoding="UTF-8"?>
<svg width="200px" height="200px" viewBox="0 0 200 200" version="1.1" xmlns="http://www.w3.org/2000/svg" xmlns:xlink="http://www.w3.org/1999/xlink">
    <!-- Generator: Sketch 51.2 (57519) - http://www.bohemiancoding.com/sketch -->
    <title>placeholder_project</title>
    <desc>Created with Sketch.</desc>
    <defs></defs>
    <g id="Page-1" stroke="none" stroke-width="1" fill="none" fill-rule="evenodd">
        <g id="Portfolio" transform="translate(-108.000000, -224.000000)">
            <g id="placeholder_project" transform="translate(108.000000, 224.000000)">
                <rect id="Rectangle-2" fill="#959595" x="0" y="0" width="200" height="200" rx="5"></rect>
                <g id="code" transform="translate(58.000000, 68.000000)" fill="#FFFFFF">
                    <path d="M52.9146976,0.863006477 L50.0586937,0.0699380112 C49.6888769,-0.0530626887 49.3268383,-0.0137310695 48.9761134,0.187217748 C48.6225601,0.388166566 48.3821438,0.692807834 48.2605215,1.09828107 L31.0693439,61.2713676 C30.9477215,61.6739804 30.9859053,62.0565698 31.1853094,62.41413 C31.3840063,62.7716901 31.6824054,63.0119706 32.0826277,63.1349713 L34.94146,63.9280397 C35.3091555,64.0539009 35.670487,64.0145693 36.0240404,63.81076 C36.3775937,63.6098112 36.6151816,63.3080304 36.7396323,62.9025572 L53.9286886,2.72947059 C54.0531394,2.32399735 54.0142485,1.94426844 53.8155515,1.58670827 C53.613319,1.2291481 53.3156271,0.986007177 52.9146976,0.863006477 Z" id="Fill-1"></path>
                    <path d="M27,12.825849 C27,12.4284133 26.8469711,12.0748228 26.5352191,11.7650776 L24.2162967,9.46108199 C23.9081035,9.15487263 23.5522223,9 23.1486529,9 C22.7486424,9 22.3927611,9.15487263 22.0810091,9.46108199 L0.464069173,30.938875 C0.155875995,31.2486202 0,31.6022107 0,31.9996464 C0,32.400618 0.155875995,32.7542085 0.464069173,33.0604179 L22.0810091,54.538918 C22.3927611,54.8479561 22.7457953,55 23.1486529,55 C23.5522223,55 23.9081035,54.8479561 24.2162967,54.538918 L26.5352191,52.2377512 C26.8469711,51.9280059 27,51.5744154 27,51.1769797 C27,50.7760081 26.8469711,50.4224176 26.5352191,50.1162083 L8.30484526,31.9996464 L26.5352191,13.8866204 C26.8469711,13.5804111 27,13.2268206 27,12.825849 Z" id="Fill-3"></path>
                    <path d="M84.5387171,30.938875 L62.91608,9.46108199 C62.6071344,9.15487263 62.2512062,9 61.8511429,9 C61.4482322,9 61.092304,9.15487263 60.7833584,9.46108199 L58.4641303,11.7650776 C58.1530491,12.0719941 58,12.4255846 58,12.825849 C58,13.2268206 58.1530491,13.5804111 58.4641303,13.8866204 L76.6969074,31.9996464 L58.4641303,50.1162083 C58.1530491,50.4224176 58,50.7760081 58,51.1769797 C58,51.5744154 58.1530491,51.9280059 58.4641303,52.2377512 L60.7833584,54.538918 C61.092304,54.8479561 61.4482322,55 61.8511429,55 C62.2512062,55 62.6071344,54.8479561 62.91608,54.538918 L84.5387171,33.0604179 C84.8476627,32.7542085 85,32.400618 85,31.9996464 C85,31.599382 84.8476627,31.2457915 84.5387171,30.938875 Z" id="Fill-4"></path>
                </g>
            </g>
        </g>
    </g>
</svg>